<?xml version="1.0" encoding="utf-8"?><svg viewBox="0 0 2000 2000" xmlns="http://www.w3.org/2000/svg" xmlns:xlink="http://www.w3.org/1999/xlink"><style>:root>svg{display:none}:root>svg:target{display:block}</style><svg viewBox="0 0 240 234" id="adobe-photoshop" xmlns="http://www.w3.org/2000/svg"><path d="M42.5 0h155C221 0 240 19 240 42.5v149c0 23.5-19 42.5-42.5 42.5h-155C19 234 0 215 0 191.5v-149C0 19 19 0 42.5 0z" fill="#001e36"/><path d="M54 164.1V61.2c0-.7.3-1.1 1-1.1 1.7 0 3.3 0 5.6-.1 2.4-.1 4.9-.1 7.6-.2s5.6-.1 8.7-.2 6.1-.1 9.1-.1c8.2 0 15 1 20.6 3.1 5 1.7 9.6 4.5 13.4 8.2 3.2 3.2 5.7 7.1 7.3 11.4 1.5 4.2 2.3 8.5 2.3 13 0 8.6-2 15.7-6 21.3s-9.6 9.8-16.1 12.2c-6.8 2.5-14.3 3.4-22.5 3.4-2.4 0-4 0-5-.1s-2.4-.1-4.3-.1V164c.1.7-.4 1.3-1.1 1.4H55.2c-.8 0-1.2-.4-1.2-1.3zm21.8-84.7V113c1.4.1 2.7.2 3.9.2H85c3.9 0 7.8-.6 11.5-1.8 3.2-.9 6-2.8 8.2-5.3 2.1-2.5 3.1-5.9 3.1-10.3.1-3.1-.7-6.2-2.3-8.9-1.7-2.6-4.1-4.6-7-5.7-3.7-1.5-7.7-2.1-11.8-2-2.6 0-4.9 0-6.8.1-2-.1-3.4 0-4.1.1zM192 106.9c-3-1.6-6.2-2.7-9.6-3.4-3.7-.8-7.4-1.3-11.2-1.3-2-.1-4.1.2-6 .7-1.3.3-2.4 1-3.1 2-.5.8-.8 1.8-.8 2.7s.4 1.8 1 2.6c.9 1.1 2.1 2 3.4 2.7 2.3 1.2 4.7 2.3 7.1 3.3 5.4 1.8 10.6 4.3 15.4 7.3 3.3 2.1 6 4.9 7.9 8.3 1.6 3.2 2.4 6.7 2.3 10.3.1 4.7-1.3 9.4-3.9 13.3-2.8 4-6.7 7.1-11.2 8.9-4.9 2.1-10.9 3.2-18.1 3.2-4.6 0-9.1-.4-13.6-1.3-3.5-.6-7-1.7-10.2-3.2-.7-.4-1.2-1.1-1.1-1.9v-17.4c0-.3.1-.7.4-.9s.6-.1.9.1c3.9 2.3 8 3.9 12.4 4.9 3.8 1 7.8 1.5 11.8 1.5 3.8 0 6.5-.5 8.3-1.4 1.6-.7 2.7-2.4 2.7-4.2 0-1.4-.8-2.7-2.4-4s-4.9-2.8-9.8-4.7c-5.1-1.8-9.8-4.2-14.2-7.2-3.1-2.2-5.7-5.1-7.6-8.5-1.6-3.2-2.4-6.7-2.3-10.2 0-4.3 1.2-8.4 3.4-12.1 2.5-4 6.2-7.2 10.5-9.2 4.7-2.4 10.6-3.5 17.7-3.5 4.1 0 8.3.3 12.4.9 3 .4 5.9 1.2 8.6 2.3.4.1.8.5 1 .9.1.4.2.8.2 1.2v16.3c0 .4-.2.8-.5 1-.9.2-1.4.2-1.8 0z" fill="#31a8ff"/></svg><svg viewBox="0 0 26 24" fill="none" id="arrow" xmlns="http://www.w3.org/2000/svg"><path d="M11.5 1.5L1 12l10.5 10.5M1 12h24" stroke="#fff" stroke-width="2" stroke-linecap="round" stroke-linejoin="round"/></svg><svg viewBox="0 0 14 10" fill="none" id="arrow-orange" xmlns="http://www.w3.org/2000/svg"><path d="M0 5h13m0 0l-2.971 4M13 5l-2.971-4" stroke="#e2a100"/></svg><svg aria-hidden="true" data-prefix="fal" data-icon="arrow-to-bottom" viewBox="0 0 384 512" class="dsvg-inline--fa dfa-arrow-to-bottom dfa-w-12 dfa-2x" id="arrow-to-down" xmlns="http://www.w3.org/2000/svg"><path fill="#863201" d="M348.5 264l-148 148.5c-4.7 4.7-12.3 4.7-17 0L35.5 264c-4.7-4.7-4.7-12.3 0-17l7.1-7.1c4.7-4.7 12.3-4.7 17 0l115.4 116V44c0-6.6 5.4-12 12-12h10c6.6 0 12 5.4 12 12v311.9L324.4 240c4.7-4.7 12.3-4.7 17 0l7.1 7.1c4.7 4.6 4.7 12.2 0 16.9zM384 468v-8c0-6.6-5.4-12-12-12H12c-6.6 0-12 5.4-12 12v8c0 6.6 5.4 12 12 12h360c6.6 0 12-5.4 12-12z"/></svg><svg fill="none" viewBox="0 0 124 141.53" id="css" xmlns="http://www.w3.org/2000/svg"><path d="M10.383 126.892L0 0l124 .255-10.979 126.637-50.553 14.638z" fill="#1b73ba"/><path d="M62.468 129.275V12.085l51.064.17-9.106 104.85z" fill="#1c88c7"/><path d="M100.851 27.064H22.298l2.128 15.318h37.276l-36.68 15.745 2.127 14.808h54.043l-1.958 20.68-18.298 3.575-16.595-4.255-1.277-11.745H27.83l2.042 24.426 32.681 9.106 31.32-9.957 4-47.745H64.765l36.085-14.978z" fill="#fff"/></svg><svg viewBox="0 0 406.065 406.065" id="facebook" xmlns="http://www.w3.org/2000/svg"><linearGradient id="fa" gradientUnits="userSpaceOnUse" x1="-1383.689" y1="1177.103" x2="-1382.689" y2="1177.103" gradientTransform="rotate(52.827 136349.564 548347.405) scale(276.6438)"><stop offset="0" stop-color="#455e9b"/><stop offset="1" stop-color="#5a70b3"/></linearGradient><path d="M22.969 144.483v177.765c0 33.643 27.208 60.852 60.847 60.852H322.25c33.641 0 60.848-27.209 60.848-60.852V145.105c-51.462 13.454-112.911 21.27-178.885 21.27-67.007 0-129.314-8.058-181.244-21.892M.055 70.038A74.62 74.62 0 000 72.882v260.303c0 40.172 32.708 72.881 72.888 72.881H333.18c40.179 0 72.885-32.709 72.885-72.881V72.882c0-.49-.005-.983-.015-1.471v67.114c-3.06.958-6.164 1.897-9.309 2.813v185.867c0 38.336-31.204 69.541-69.539 69.541H78.862c-38.334 0-69.54-31.205-69.54-69.541v-186.56c-3.146-.934-6.25-1.89-9.308-2.866V72.473c.001-.814.014-1.627.041-2.435" fill="url(#fa)"/><path d="M22.969 83.728c0-33.553 27.208-60.845 60.847-60.845H322.25c33.641 0 60.848 27.292 60.848 60.845v238.521c0 33.643-27.207 60.852-60.848 60.852H83.815c-33.639 0-60.847-27.209-60.847-60.852l.001-238.521M9.322 78.86v248.345c0 38.336 31.206 69.541 69.54 69.541h248.341c38.335 0 69.539-31.205 69.539-69.541V78.86c0-38.332-31.204-69.538-69.539-69.538H78.862c-38.334 0-69.54 31.206-69.54 69.538" fill="#8091c1"/><path d="M336.51 0H68.783c-1.8 0-3.578.091-5.345.226C28.502 4.782 1.239 34.169.055 70.038 1.554 31.175 33.66 0 72.887 0H333.18c39.688 0 72.085 31.912 72.87 71.411v-.141c-.587-35.795-27.114-65.417-61.567-70.8-2.618-.3-5.275-.47-7.973-.47" fill="#d6ddf0"/><linearGradient id="fb" gradientUnits="userSpaceOnUse" x1="-1383.689" y1="1176.838" x2="-1382.689" y2="1176.838" gradientTransform="rotate(52.827 136349.564 548347.405) scale(276.6438)"><stop offset="0" stop-color="#697bb0"/><stop offset="1" stop-color="#7688c2"/></linearGradient><path d="M322.249 22.882H83.815c-33.639 0-60.847 27.292-60.847 60.845v60.755c51.93 13.834 114.236 21.892 181.242 21.892 65.974 0 127.423-7.816 178.885-21.27V83.728c.001-33.553-27.206-60.846-60.846-60.846M333.18 0H72.887C33.66 0 1.554 31.175.055 70.038c-.026.808-.04 1.621-.04 2.435v65.305a465.32 465.32 0 009.308 2.866V78.86c0-38.332 31.206-69.538 69.54-69.538h248.341c38.335 0 69.539 31.206 69.539 69.538v62.478a479.45 479.45 0 009.309-2.813V71.411C405.265 31.912 372.868 0 333.18 0" fill="url(#fb)"/><path d="M327.203 9.322H78.862c-38.334 0-69.54 31.206-69.54 69.538v61.784a503.287 503.287 0 0013.646 3.838V83.728c0-33.553 27.208-60.845 60.847-60.845h238.434c33.641 0 60.848 27.292 60.848 60.845v61.378a509.178 509.178 0 0013.646-3.767V78.86c-.001-38.332-31.205-69.538-69.54-69.538" fill="#8d9fcb"/><path d="M311.982 109.705h26.031v-52.68h-56.437c-34.275 0-62.062 27.786-62.062 62.062v31.515h-44.521v52.681h44.521v162.21h69.238v-162.21h49.259v-52.681h-49.259V132.93c.004-12.826 10.403-23.225 23.23-23.225z" fill="#fff"/></svg><svg viewBox="0 0 200 300" id="figma" xmlns="http://www.w3.org/2000/svg"><path d="M50 300c27.6 0 50-22.4 50-50v-50H50c-27.6 0-50 22.4-50 50s22.4 50 50 50z" fill="#0acf83"/><path d="M0 150c0-27.6 22.4-50 50-50h50v100H50c-27.6 0-50-22.4-50-50z" fill="#a259ff"/><path d="M0 50C0 22.4 22.4 0 50 0h50v100H50C22.4 100 0 77.6 0 50z" fill="#f24e1e"/><path d="M100 0h50c27.6 0 50 22.4 50 50s-22.4 50-50 50h-50z" fill="#ff7262"/><path d="M200 150c0 27.6-22.4 50-50 50s-50-22.4-50-50 22.4-50 50-50 50 22.4 50 50z" fill="#1abcfe"/></svg><svg viewBox="0 0 256 256" preserveAspectRatio="xMidYMid" id="frontend" xmlns="http://www.w3.org/2000/svg"><path d="M128 0C57.25 0 0 57.25 0 128s57.25 128 128 128 128-57.25 128-128S198.284 0 128 0zm0 232.727c-58.182 0-105.193-47.01-105.193-104.727C22.807 69.818 69.818 22.807 128 22.807c58.182 0 104.727 47.011 104.727 105.193 0 57.716-47.01 104.727-104.727 104.727zm-13.964-69.818L76.335 128l37.701-35.375V59.578L41.891 128l72.145 67.956V162.91zm27.462-103.33v33.046L179.2 128l-37.702 34.91v33.046L213.644 128l-72.146-68.422z" fill="#53ADC0"/></svg><svg viewBox="0 0 24 24" id="github" xmlns="http://www.w3.org/2000/svg"><path fill="#fff" d="M12 0C5.374 0 0 5.373 0 12c0 5.302 3.438 9.8 8.207 11.387.599.111.793-.261.793-.577v-2.234c-3.338.726-4.033-1.416-4.033-1.416-.546-1.387-1.333-1.756-1.333-1.756-1.089-.745.083-.729.083-.729 1.205.084 1.839 1.237 1.839 1.237 1.07 1.834 2.807 1.304 3.492.997.107-.775.418-1.305.762-1.604-2.665-.305-5.467-1.334-5.467-5.931 0-1.311.469-2.381 1.236-3.221-.124-.303-.535-1.524.117-3.176 0 0 1.008-.322 3.301 1.23A11.509 11.509 0 0112 5.803c1.02.005 2.047.138 3.006.404 2.291-1.552 3.297-1.23 3.297-1.23.653 1.653.242 2.874.118 3.176.77.84 1.235 1.911 1.235 3.221 0 4.609-2.807 5.624-5.479 5.921.43.372.823 1.102.823 2.222v3.293c0 .319.192.694.801.576C20.566 21.797 24 17.3 24 12c0-6.627-5.373-12-12-12z"/></svg><svg viewBox="0 49.4 512 399.42" id="gmail" xmlns="http://www.w3.org/2000/svg"><g fill="none" fill-rule="evenodd"><g fill-rule="nonzero"><path d="M34.91 448.818h81.454V251L0 163.727V413.91c0 19.287 15.622 34.91 34.91 34.91z" fill="#4285f4"/><path d="M395.636 448.818h81.455c19.287 0 34.909-15.622 34.909-34.909V163.727L395.636 251z" fill="#34a853"/><path d="M395.636 99.727V251L512 163.727v-46.545c0-43.142-49.25-67.782-83.782-41.891z" fill="#fbbc04"/></g><path d="M116.364 251V99.727L256 204.455 395.636 99.727V251L256 355.727z" fill="#ea4335"/><path d="M0 117.182v46.545L116.364 251V99.727L83.782 75.291C49.25 49.4 0 74.04 0 117.18z" fill="#c5221f" fill-rule="nonzero"/></g></svg><svg viewBox="0 0 256 566" preserveAspectRatio="xMinYMin meet" id="gulp" xmlns="http://www.w3.org/2000/svg"><path d="M197.28 548.749l5.427-90.43 14.985-25.58s-34.106 13.952-91.205 13.952c-57.1 0-90.689-13.694-90.689-13.694l16.794 27.904 5.941 87.848c0 9.418 31.059 17.052 69.374 17.052 38.313 0 69.373-7.634 69.373-17.052m-17.119-422.295l11.391-45.025 63.081-66.376L238.007.892l-66.784 70.707-13.226 53.793a886.14 886.14 0 00-29.873-.497c-70.336 0-127.355 8.016-127.355 17.902 0 9.887 57.019 17.902 127.355 17.902 70.335 0 127.353-8.015 127.353-17.902 0-7.28-30.924-13.546-75.316-16.343" fill="#D34A47"/><path d="M173.535 151.669s-2.467.553-9.724.584c-7.259.03-12.413-.047-14.466-1.917-.552-.502-.854-1.499-.851-2.174.006-1.285.918-2.042 2.08-2.516l1.099 1.724c-.478.165-.751.36-.752.568-.004.976 7.422 1.644 13.102 1.572 5.681-.07 12.545-.538 12.551-1.5 0-.291-.519-.565-1.422-.781l1.094-1.712c1.472.457 2.757 1.34 2.754 2.868-.014 2.598-3.32 2.993-5.465 3.284" fill="#FFF"/><path d="M254.509 15.184c1.586-1.832-.821-6.518-5.376-10.465C244.576.774 239.596-.94 238.007.892c-1.587 1.832.821 6.518 5.378 10.463 4.555 3.946 9.537 5.662 11.124 3.829m-60.263 312.681c-1.495-14.384 31.462-35.216 23.004-35.883-18.208 1.041-27.27 21.338-36.431 42.596-3.357 7.791-14.844 41.013-22.378 36.923-7.532-4.088 9.765-31.407 14.613-47.631-5.594 4.102-26.109 20.041-31.396 5.114-8.5 7.219-26.663 11.13-24.614-7.833-4.522 8.01-14.671 19.193-26.853 14.546-15.998-6.101 9.27-57.062 15.553-54.491 6.284 2.57-1.268 14.179-3.246 18.687-4.35 9.921-9.375 22.393-6.018 24.946 5.751 4.374 21.401-16.547 21.749-17.007 2.927-3.867 11.266-29.166 17.987-26.261 6.721 2.905-16.764 36.308-7.983 42.937 1.771 1.338 9.017-.825 13.425-5.594 2.852-3.085 1.871-9.918 11.378-32.59 9.507-22.671 17.98-50.905 24.5-48.754 6.52 2.15 1.146 16.641-1.193 22.043-10.976 25.354-29.956 67.241-21.005 64.07 8.951-3.17 13.612-3.356 22.377-13.613 8.765-10.257 8.361-27.152 14.203-26.793 5.844.36 4.863 5.777 3.446 9.902 5.75-6.58 27.256-20.438 32.448-6.713 6.15 16.249-30.769 39.72-21.564 38.523 8.975-1.167 23.515-10.376 29.723-18.749l17.088-153.626s-17.195 14.23-126.589 14.23c-109.395 0-124.811-13.934-124.811-13.934l14.548 140.224c7.722-21.947 26.059-66.339 54.963-64.849 13.148.678 30.7 25.995 15.665 26.853-6.364.362-7.01-12.637-14.546-14.546-5.438-1.378-13.009 3.043-17.902 7.833-9.758 9.55-30.745 47.229-27.972 66.014 3.533 23.949 33.048-8.322 38.042-17.903 3.517-6.749 5.893-26.745 13.585-24.647 7.693 2.098-.671 22.734-6.247 40.979-6.264 20.487-9.557 42.098-17.408 39.612-7.852-2.484 4.938-28.932 4.475-33.566-7.38 6.809-20.976 24.047-38.37 15.515l9.035 87.078s24.013 18.973 96.35 18.973c72.337 0 97.239-18.677 97.239-18.677l11.219-100.857c-9.179 8.938-38.229 24.81-40.089 6.919" fill="#D34A47"/></svg><svg fill="none" viewBox="0 0 124 141.532" id="html" xmlns="http://www.w3.org/2000/svg"><path d="M10.383 126.894L0 0l124 .255-10.979 126.639-50.553 14.638z" fill="#e34f26"/><path d="M62.468 129.277V12.085l51.064.17-9.106 104.851z" fill="#ef652a"/><path d="M99.49 41.362l1.446-15.49H22.383l4.34 47.49h54.213L78.81 93.617l-17.362 4.68-17.617-5.106-.936-12.085H27.319l2.128 24.681 32 8.936 32.255-8.936 4.34-48.17H41.107L39.49 41.362z" fill="#fff"/></svg><svg viewBox="0 0 523.596 128.25" id="jquery" xmlns="http://www.w3.org/2000/svg"><path d="M223.9 46.171l.001-.005-3.352 11.88 3.351-11.875zm17.24 25.791l-3.693-.022 3.693.022zm-.95 17.741h.004l-22.131.08 22.127-.08zm4.64-17.719l-3.695-.022 3.695.022zm-2.7 16.211l3.854-14.702-3.854 14.705v-.003zm81.48-67.705l-7.181 33.76 7.181-33.76zm-18.46 0l-5.451 25.22 5.451-25.222v.002z" fill="#131b28"/><path d="M322.38 18.971h-15.356c-.852 0-1.697.684-1.88 1.517l-5.451 25.222-5.452 25.223c-.181.832-1.025 1.514-1.877 1.514h-10.869c-10.753 0-9.51-7.438-7.308-17.627l.066-.308.241-1.284.046-.242.49-2.615.526-2.803c.16-.845.402-2.08.562-2.856l2.478-12.109 2.48-12.109c.171-.835-.388-1.521-1.24-1.521h-15.762c-.852 0-1.695.686-1.87 1.519l-3.389 16.079-3.389 16.077c-.003.007-.004.017-.005.024l-.315 1.494c-3.903 17.822-2.868 34.817 18.348 35.349.347.01.615.013.615.013h33.302c.852 0 1.695-.684 1.874-1.519l7.181-33.757 7.182-33.76c.176-.837-.376-1.52-1.228-1.521zm61.26 53.65c.854 0 1.411.684 1.24 1.519l-1.491 7.288m-1.489 7.291l1.491-7.292-1.492 7.295.001-.003zm-1.87 1.534l.008-.002c-4.52.036-18.1.14-28.307.14 12.422 0 28.298-.137 28.299-.138zm-37.46-27.019c-.012-.798.896-2.173 1.75-2.173l-1.918-.032c-.865 8.692.168 2.205.168 2.205z" fill="#131b28"/><path d="M353.13 90.387c-.098 0-.198 0-.296.002.098-.002.198-.002.296-.002zm30.51-17.766c.854 0 1.411.684 1.24 1.519l-1.491 7.288-.243 1.188M360.4 90.37h-.062.062zm-3.77.012h-.219.219zm-1.15.003c-.122 0-.241 0-.361.002.12-.002.239-.002.361-.002zm-1.17.002h-.317.317zm2.1-.005l-.931.002.931-.002zm3.93-.012c-1.243.005-2.483.01-3.705.013 1.222-.002 2.464-.008 3.705-.013zm19.7-.12zm1.86-1.527l1.249-6.106-1.25 6.11.001-.004zm-26.78 1.664h-.811.811zm-2.29.002h-1.097 1.097zm1.16-.002h-.864.864zm-224.63-26.97l2.386-10.574-2.728 12.087-2.617 12.312 2.294-10.793c.176-.835.477-2.2.665-3.032zm28.55-44.624h-16.864c-.854 0-1.704.681-1.895 1.511l-1.6 7.058-1.599 7.061c-.188.83.355 1.511 1.208 1.511h16.995c.853 0 1.699-.681 1.883-1.514l1.545-7.058 1.546-7.053v-.002c.183-.832-.365-1.514-1.219-1.514zm-3.67 23.479v-.002l-4.946 22.882 4.946-22.88zm-48.99 75.818s8.501.109 13.904.109c-4.104 0-10.885-.075-13.911-.111l.007.002zm28.88-75.821l-2.388 10.574 2.388-10.574z" fill="#131b28"/><path d="M153.02 40.756h-16.997c-.852 0-1.704.681-1.892 1.514l-2.388 10.574-2.386 10.574c-.188.832-.488 2.197-.665 3.032l-2.294 10.793-2.292 10.793a32.847 32.847 0 01-.818 2.985s-3.175 9.448-8.513 9.341c-.228-.005-.448-.007-.667-.013-2.587-.049-4.619-.085-4.619-.085h-.004c-.851-.013-1.706.651-1.905 1.479l-1.763 7.41-1.761 7.406c-.197.828.337 1.512 1.185 1.526 3.027.036 9.807.112 13.912.112 13.334 0 20.363-7.388 24.869-28.647l5.273-24.398 4.946-22.883c.18-.831-.37-1.513-1.221-1.513zm241.45 48.769c-.853 0-1.405-.684-1.226-1.52l12.786-59.89m6.21 59.889l5.171-25.562-5.171 25.562z" fill="#131b28"/><path d="M393.43 88.766c-.104-.417-.043-1.439.138-2.275l6.068-28.428-6.393 29.944c-.18.835.373 1.519 1.226 1.519h1.553c-.854-.001-2.49-.342-2.592-.76zm17.8.418c-.464.188-1.543.342-2.396.342h1.553c.853 0 1.689-.684 1.858-1.521l.308-1.519c-.171.834-.858 2.509-1.323 2.698zm3.6-13.961l2.282-11.282c-.001.007-.002.017-.004.022l-2.278 11.26zm50.45-43.095l.704 2.91c.194.833-.344 1.509-1.194 1.511m-52.24 49.937l2.276-11.262-2.276 11.262zm52.029-57.339l.697 2.981-.697-2.981zM417.11 63.942c.17-.835.451-2.188.628-3.015l2.438-11.421-2.761 12.937-.305 1.499zm-10.87-36.807c-.169.806-.387 1.824-.53 2.498l-6.068 28.43 6.393-29.946.205-.982z" fill="#131b28"/><path d="M465.98 35.038l-.704-2.91-.697-2.981-.353-1.509c-1.381-5.363-5.434-8.459-14.233-8.459l-13.7-.015-12.617-.015H409.48c-.852 0-1.695.681-1.871 1.516h-.001l-.628 2.966-.74 3.503-.207.981-6.393 29.946-6.068 28.428c-.181.836-.241 1.858-.138 2.275.103.418 1.738.76 2.592.76h12.808c.854 0 1.933-.154 2.396-.342.465-.188 1.152-1.863 1.322-2.698l2.276-11.262 2.279-11.26.004-.022.304-1.499 2.762-12.937 2.438-11.426c.181-.83 1.021-1.509 1.871-1.511l40.3-.02c.85 0 1.389-.677 1.194-1.509z" fill="#131b28"/><path d="M517.86 8.725c-.854.006-2.248.011-3.102.011h-12.899c-.854 0-1.945.576-2.427 1.28L470.91 51.803c-.482.706-1.031.601-1.221-.229l-2.099-9.207c-.189-.833-1.044-1.511-1.896-1.511h-18.338c-.853 0-1.358.669-1.125 1.489l8.217 28.784c.234.82.251 2.168.04 2.994l-3.581 13.931c-.213.827.312 1.504 1.166 1.504h18.122c.853 0 1.724-.677 1.936-1.504l3.583-13.931c.211-.826.804-2.061 1.318-2.742l46.306-61.459c.514-.681.235-1.235-.616-1.229l-4.862.032zM372.18 44.774l-.001-.017c-.107.925-.961 1.604-1.812 1.604h-23.248c-.804 0-1.213-.547-1.094-1.221.007-.02.01-.037.021-.054 0 0-.008.002-.015.007.005-.027.005-.052.013-.078l.106-.396c2.221-5.903 6.743-9.778 15.243-9.778 9.569.001 11.437 4.677 10.787 9.933zm-6.82-26.834c-29.841 0-36.912 18.113-40.879 36.394-3.967 18.633-3.625 36.055 27.253 36.055h1.097c.098-.002.197-.002.295-.002h1.992c.12-.002.239-.002.361-.002l.931-.002h.218c1.223-.002 2.463-.008 3.705-.012h.062c8.155-.032 16.334-.094 19.646-.12.848-.013 1.677-.696 1.851-1.523l1.25-6.11.243-1.189 1.492-7.287c.171-.836-.388-1.52-1.24-1.52h-27.762c-11.041 0-14.319-2.934-13.111-11.56h44.377l-.004.005c.011 0 .021-.005.03-.005.705-.013 1.357-.498 1.616-1.145.049-.125.091-.254.107-.388l-.005.005c6.589-24.854 4.699-41.592-23.528-41.592l.003-.002zM224.32 44.679l-.42 1.487-.001.005-3.351 11.875-3.35 11.873c-.231.82-1.118 1.491-1.973 1.491H197.49c-13.452 0-16.729-10.521-13.452-26.042 3.274-15.874 9.697-25.742 22.938-26.741 18.093-1.364 21.713 11.362 17.344 26.052zm12.163 25.818s8.362-20.303 10.262-32.031C249.334 22.767 241.474 0 211.114 0c-30.187 0-43.295 21.737-48.297 45.367-5.001 23.801 1.552 44.675 31.567 44.504l23.679-.088 22.131-.08c.853-.008 1.724-.684 1.941-1.507l3.854-14.705c.215-.825-.306-1.504-1.158-1.509l-3.695-.021-3.693-.022c-.726-.005-1.141-.474-1.053-1.097a1.5 1.5 0 01.091-.347l.002.002z" fill="#131b28"/><path d="M385.92 56.908a1.018 1.018 0 11-2.036 0 1.018 1.018 0 012.036 0z" fill="#131b28"/><path d="M5.979 30.509c-8.335 11.98-7.298 27.566-.931 40.295.151.306.311.605.467.906.1.19.193.386.298.573.059.112.124.223.186.33.108.202.22.396.332.593.197.35.4.696.607 1.043.115.19.229.381.347.571.229.371.465.737.706 1.104.1.156.197.312.3.464.332.495.672.988 1.021 1.475l.029.039c.056.078.116.153.173.231.303.418.615.83.931 1.238.116.148.233.298.351.446a75.153 75.153 0 001.189 1.451 53.794 53.794 0 001.222 1.394c.018.02.032.031.046.051a58.825 58.825 0 002.583 2.632c.134.127.266.257.398.378a49.267 49.267 0 001.354 1.231c.077.068.156.133.232.198.397.345.803.687 1.21 1.022.166.135.335.267.502.4.333.267.67.53 1.01.789l.539.41c.375.275.752.547 1.133.813.14.1.273.197.413.292.039.027.074.055.113.081.361.249.731.488 1.1.728.159.105.316.215.477.317.566.359 1.142.713 1.723 1.055.157.091.317.179.476.269.428.247.857.488 1.293.726.235.127.478.246.715.368.308.161.613.325.926.481.07.034.144.068.214.103.125.061.252.119.378.183a59.307 59.307 0 001.777.819c.565.246 1.135.483 1.71.71.138.057.277.11.416.164a59.485 59.485 0 001.816.668c.595.208 1.195.4 1.8.589.144.042.289.088.435.13.615.186 1.224.407 1.857.524 40.311 7.351 52.02-24.224 52.02-24.224-9.834 12.812-27.29 16.19-43.829 12.429-.626-.142-1.234-.337-1.846-.518a53.388 53.388 0 01-2.237-.718l-.244-.088a57.277 57.277 0 01-1.567-.581c-.146-.059-.293-.114-.439-.173a51.415 51.415 0 01-1.692-.703c-.114-.049-.225-.101-.338-.149a77.238 77.238 0 01-1.84-.862c-.371-.181-.737-.373-1.104-.562-.245-.129-.494-.251-.737-.386a42.673 42.673 0 01-1.323-.742c-.147-.083-.298-.163-.446-.249a63.03 63.03 0 01-1.724-1.056c-.156-.1-.31-.206-.465-.31a47.36 47.36 0 01-1.226-.815c-.135-.09-.264-.188-.396-.277-.39-.275-.775-.555-1.159-.838-.174-.129-.345-.26-.514-.389a84.888 84.888 0 01-1.513-1.191 59.452 59.452 0 01-1.302-1.098l-.144-.12a59.96 59.96 0 01-1.369-1.245c-.131-.125-.258-.246-.386-.371a40.706 40.706 0 01-.984-.965c-.129-.129-.259-.256-.386-.385-.41-.42-.812-.846-1.207-1.277l-.06-.063a49.015 49.015 0 01-1.225-1.394c-.108-.13-.214-.254-.321-.381a51.13 51.13 0 01-.881-1.09 26.985 26.985 0 01-.323-.402c-.347-.45-.686-.899-1.018-1.355-9.183-12.524-12.481-29.8-5.143-43.987" fill="#0868ac"/><path d="M31.852 20.416c-6.027 8.674-5.7 20.286-.998 29.46a38.346 38.346 0 002.666 4.451c.903 1.294 1.904 2.834 3.103 3.875.435.479.889.945 1.353 1.404.117.12.237.234.356.352.45.437.908.867 1.382 1.284.02.015.037.034.056.049.006.005.011.007.014.013.523.459 1.064.901 1.614 1.335.122.093.242.19.366.286.55.422 1.112.837 1.688 1.233.018.012.032.024.049.037.254.176.513.339.771.508.123.08.24.166.365.241.411.264.827.521 1.251.767.061.037.118.068.177.103.365.21.735.417 1.106.617.13.073.261.137.394.205.256.135.513.271.773.4.039.02.079.037.117.054.531.262 1.066.514 1.613.752.117.052.238.098.356.146.438.186.879.367 1.323.537.188.071.379.14.566.208.403.149.808.286 1.215.423.185.059.365.119.55.176.579.18 1.152.407 1.756.508 31.123 5.156 38.309-18.807 38.309-18.807-6.478 9.329-19.021 13.779-32.405 10.305a38.002 38.002 0 01-2.292-.681 35.14 35.14 0 01-1.79-.633 40.373 40.373 0 01-1.327-.535c-.119-.051-.24-.098-.357-.151a37.454 37.454 0 01-1.623-.754c-.275-.134-.545-.276-.814-.415l-.47-.242a36.88 36.88 0 01-1.03-.581c-.081-.046-.165-.091-.247-.139-.421-.247-.836-.5-1.247-.762-.127-.081-.249-.168-.376-.251a49.173 49.173 0 01-.809-.535 45.035 45.035 0 01-1.682-1.23c-.127-.1-.254-.198-.379-.298-5.859-4.626-10.503-10.947-12.711-18.115-2.314-7.434-1.815-15.779 2.194-22.551" fill="#0868ac"/><path d="M53.613 12.875c-3.553 5.229-3.902 11.724-1.437 17.5 2.601 6.13 7.929 10.94 14.147 13.22.256.096.513.181.772.269.113.034.226.074.341.107.366.115.729.249 1.108.32 17.185 3.32 21.846-8.818 23.087-10.605-4.083 5.879-10.945 7.29-19.364 5.247a21.91 21.91 0 01-2.037-.629 24.899 24.899 0 01-2.419-1.005 25.021 25.021 0 01-4.241-2.588c-7.534-5.716-12.214-16.621-7.298-25.502M247.16 114.73l-4.954 11.281h-5.469l.448-10.251-4.026 10.251h-5.295l-.14-11.281.585-2.786h3.75l-.723 11.144 4.163-11.144h5.228l-.378 11.282 4.128-11.282h3.267l-.584 2.786zm8.63 3.34c.481-2.203.344-2.615-.791-2.615h-1.721l-1.101 5.161-1.686 5.397h-3.198l2.613-12.243.38-1.79h2.923l.379.825s1.686-.996 3.335-.996c3.51 0 3.234 2.646 2.477 6.26l-3.61.001zm10.39-7.881c-1.409 0-2.304-.412-1.96-2.131.378-1.721 1.479-2.134 2.854-2.134 1.378 0 2.306.413 1.928 2.134-.346 1.685-1.445 2.131-2.822 2.131zm-1.513 15.824h-3.166l.62-5.503 1.101-5.09-2.2-.483.618-2.991h6.019l-2.992 14.067zm13.723-11.083l-3.955.484-1.137 5.365c-.31 1.48-.31 1.893.999 1.893h2.647l-.551 2.819s-2.406.723-3.439.723c-4.059 0-4.025-2.235-3.301-5.573l1.101-5.262-2.202-.48.653-2.993h2.306l1.308-3.545h3.13l-.758 3.545h3.853l-.654 3.024zm8.22.179c-1.856 0-2.82.965-3.198 2.684l5.297-.447c.239-1.169-.001-2.237-2.099-2.237zm-3.713 5.228c-.243 1.722.411 2.305 2.612 2.305h5.537l-.55 2.614s-3.336.928-5.812.928c-6.157 0-6.227-3.471-5.435-7.188.791-3.646 2.2-7.256 8.15-7.256 5.746 0 6.021 3.473 4.61 8.597h-9.112zm21.733 5.673h-3.163l.619-5.503 2.236-10.457-2.204-.515.654-2.993h6.021l-4.163 19.468zm11.43-10.901c-1.859 0-2.821.965-3.2 2.684l5.298-.447c.239-1.169-.001-2.237-2.098-2.237zm-3.716 5.228c-.24 1.722.414 2.305 2.613 2.305h5.539l-.551 2.614s-3.338.928-5.814.928c-6.157 0-6.225-3.471-5.434-7.188.792-3.646 2.202-7.256 8.152-7.256 5.744 0 6.02 3.473 4.61 8.597h-9.115zm23.626-5.057s-4.024.034-5.125.034c-2.34 0-2.58.721-2.751 1.477l-.14.688 7.431.552s.034 2.373-.275 3.714c-.447 2.236-2.752 4.505-6.913 4.505-2.065 0-5.401-.789-5.401-.789l.584-2.717h5.126c2.271 0 2.581-.621 2.72-1.238l.171-.894-7.292-.552s-.275-1.824.103-3.645c.552-2.479 2.819-4.609 6.981-4.609 2.064 0 5.4.754 5.4.754l-.619 2.72zm13.83 0s-4.023.034-5.125.034c-2.339 0-2.579.721-2.751 1.477l-.14.688 7.432.552s.034 2.373-.275 3.714c-.447 2.236-2.752 4.505-6.914 4.505-2.063 0-5.4-.789-5.4-.789l.585-2.717h5.125c2.27 0 2.579-.621 2.719-1.238l.171-.894-7.293-.552s-.274-1.824.103-3.645c.552-2.479 2.82-4.609 6.984-4.609 2.062 0 5.398.754 5.398.754l-.619 2.72zm4.33 12.97h-2.75l.103-2.065c-.999-.065-1.514-.788-1.273-1.995.378-1.719 1.445-2.131 2.855-2.131 1.375 0 2.302.412 1.926 2.131l-.861 4.06zm18.4-12.83c-2.062 0-2.784 1.238-3.267 3.508-.481 2.271-.344 3.611 1.719 3.611h2.855l1.583-7.119h-2.89zm4.713 8.769l-.38 1.824-2.887-.035-.414-.893s-2.547 1.098-4.264 1.098c-4.404 0-4.611-3.61-3.82-7.256.791-3.715 2.512-7.224 6.88-7.224 1.584 0 3.715.791 3.715.791l1.754-5.95h3.166l-3.75 17.645zm11.387-8.909c-2.682 0-3.544 1.511-4.024 3.713-.447 2.236-.239 3.75 2.406 3.75 2.753 0 3.579-1.479 4.06-3.75.483-2.134.343-3.713-2.442-3.713zm-2.338 10.938c-5.676 0-6.124-3.542-5.367-7.224.792-3.68 2.787-7.188 8.463-7.188 5.64 0 6.157 3.508 5.364 7.188-.79 3.75-2.786 7.224-8.46 7.224zm32.198-.208l.62-5.435.31-1.548c.447-2.062.723-3.576-1.445-3.576h-1.685c.069 1.066-.139 2.271-.413 3.542l-1.479 7.017h-3.199l.619-5.435.309-1.548c.448-2.062.722-3.576-1.442-3.576h-1.378l-2.271 10.559h-3.681l2.993-14.066h2.889l.447.859s1.962-1.033 3.544-1.033c1.203 0 2.098.552 2.408 1.238.687-.379 2.648-1.238 4.06-1.238 4.399 0 4.264 3.576 3.472 7.225l-1.479 7.016h-3.199v-.001zm14.62-10.73c-2.685 0-3.544 1.511-4.024 3.713-.447 2.236-.239 3.75 2.407 3.75 2.751 0 3.579-1.479 4.06-3.75.48-2.134.343-3.713-2.443-3.713zm-2.339 10.938c-5.678 0-6.123-3.542-5.366-7.224.791-3.68 2.786-7.188 8.462-7.188 5.643 0 6.157 3.508 5.365 7.188-.79 3.75-2.786 7.224-8.461 7.224zm18.019-8.148c.48-2.203.344-2.615-.79-2.615h-1.722l-1.101 5.161-1.687 5.397h-3.197l2.613-12.243.379-1.79h2.924l.377.825s1.687-.996 3.339-.996c3.507 0 3.231 2.646 2.475 6.26l-3.61.001zm12.32-2.961c-1.855 0-2.819.965-3.197 2.684l5.295-.447c.241-1.169-.001-2.237-2.098-2.237zm-3.715 5.228c-.239 1.722.413 2.305 2.614 2.305h5.538l-.55 2.614s-3.337.928-5.812.928c-6.157 0-6.226-3.471-5.438-7.188.793-3.646 2.204-7.256 8.153-7.256 5.743 0 6.021 3.473 4.609 8.597h-9.114zm12.205 5.883c-1.445 0-2.338-.412-1.959-2.097.342-1.724 1.408-2.134 2.854-2.134 1.341 0 2.269.41 1.927 2.134-.381 1.65-1.479 2.097-2.822 2.097z" fill="#0868ac"/></svg><svg viewBox="0 0 1052 1052" id="js" xmlns="http://www.w3.org/2000/svg"><path fill="#f0db4f" d="M0 0h1052v1052H0z"/><path d="M965.9 801.1c-7.7-48-39-88.3-131.7-125.9-32.2-14.8-68.1-25.399-78.8-49.8-3.8-14.2-4.3-22.2-1.9-30.8 6.9-27.9 40.2-36.6 66.6-28.6 17 5.7 33.1 18.801 42.8 39.7 45.4-29.399 45.3-29.2 77-49.399-11.6-18-17.8-26.301-25.4-34-27.3-30.5-64.5-46.2-124-45-10.3 1.3-20.699 2.699-31 4-29.699 7.5-58 23.1-74.6 44-49.8 56.5-35.6 155.399 25 196.1 59.7 44.8 147.4 55 158.6 96.9 10.9 51.3-37.699 67.899-86 62-35.6-7.4-55.399-25.5-76.8-58.4-39.399 22.8-39.399 22.8-79.899 46.1 9.6 21 19.699 30.5 35.8 48.7 76.2 77.3 266.899 73.5 301.1-43.5 1.399-4.001 10.6-30.801 3.199-72.101zm-394-317.6h-98.4c0 85-.399 169.4-.399 254.4 0 54.1 2.8 103.7-6 118.9-14.4 29.899-51.7 26.2-68.7 20.399-17.3-8.5-26.1-20.6-36.3-37.699-2.8-4.9-4.9-8.7-5.601-9-26.699 16.3-53.3 32.699-80 49 13.301 27.3 32.9 51 58 66.399 37.5 22.5 87.9 29.4 140.601 17.3 34.3-10 63.899-30.699 79.399-62.199 22.4-41.3 17.6-91.3 17.4-146.6.5-90.2 0-180.4 0-270.9z" fill="#323330"/></svg><svg viewBox="1.786 1.783 287.865 76.248" id="linkedin" xmlns="http://www.w3.org/2000/svg"><path d="M213.882 7.245c0-3.015 2.508-5.462 5.6-5.462h64.568c3.093 0 5.6 2.447 5.6 5.462V72.57c0 3.016-2.507 5.461-5.6 5.461h-64.568c-3.092 0-5.6-2.445-5.6-5.46V7.244z" fill="#069"/><path d="M1.785 65.652h31.62V55.27H13.23V15.665H1.785v49.987zm47.629 0v-34.43H37.97v34.43h11.444zm-5.721-39.13c3.99 0 6.474-2.644 6.474-5.95-.074-3.378-2.484-5.947-6.398-5.947-3.915 0-6.475 2.57-6.475 5.947 0 3.306 2.484 5.95 6.324 5.95h.075zm11.034 39.13h11.444V46.424c0-1.029.074-2.058.377-2.791.826-2.056 2.709-4.186 5.871-4.186 4.142 0 5.799 3.158 5.799 7.784v18.42H89.66V45.91c0-10.576-5.646-15.497-13.176-15.497-6.173 0-8.884 3.451-10.39 5.802h.077v-4.993H54.727c.151 3.231 0 34.43 0 34.43zm51.078-49.987H94.361v49.987h11.444V54.489l2.86-3.601 8.96 14.764h14.078l-15.056-21.373 13.174-14.54h-13.776s-9.411 13.008-10.24 14.552V15.665z"/><path d="M162.306 51.29c.151-.884.377-2.58.377-4.498 0-8.9-4.518-17.936-16.413-17.936-12.724 0-18.597 10.063-18.597 19.19 0 11.288 7.153 18.337 19.65 18.337 4.97 0 9.561-.732 13.327-2.275l-1.506-7.558c-3.088 1.024-6.25 1.537-10.164 1.537-5.345 0-10.012-2.195-10.389-6.871l23.715.072v.002zm-23.79-7.742c.301-2.938 2.26-7.273 7.153-7.273 5.194 0 6.4 4.628 6.4 7.273h-13.552zm52.414-27.883v17.304h-.151c-1.657-2.422-5.12-4.038-9.71-4.038-8.81 0-16.564 7.05-16.49 19.094 0 11.164 7.003 18.435 15.735 18.435 4.744 0 9.26-2.058 11.52-6.024h.225l.453 5.216h10.163c-.15-2.424-.302-6.61-.302-10.723V15.664h-11.444zm0 34.05c0 .88-.075 1.763-.227 2.495-.675 3.16-3.386 5.361-6.699 5.361-4.742 0-7.83-3.818-7.83-9.84 0-5.654 2.637-10.208 7.906-10.208 3.538 0 6.022 2.423 6.7 5.433.15.663.15 1.398.15 2.058v4.7z"/><path d="M236.85 65.61V31.18h-11.444v34.43h11.445zm-5.72-39.13c3.99 0 6.474-2.644 6.474-5.948-.075-3.379-2.484-5.949-6.398-5.949-3.917 0-6.475 2.57-6.475 5.949 0 3.304 2.483 5.948 6.324 5.948h.074zm12.054 39.13h11.443V46.385c0-1.028.075-2.058.377-2.792.827-2.057 2.71-4.186 5.872-4.186 4.14 0 5.797 3.157 5.797 7.786V65.61h11.443V45.869c0-10.575-5.645-15.496-13.174-15.496-6.173 0-8.884 3.45-10.39 5.8h.076v-4.992h-11.443c.149 3.23-.001 34.43-.001 34.43z" fill="#fff"/></svg><svg id="motion" viewBox="0 0 1302 1302" xmlns="http://www.w3.org/2000/svg"><style>.pst0{fill:#002195}</style><path class="pst0" d="M0 651V0h1302v1302H0V651zm690.5 444.6c81.9-9.1 158.1-39.1 224.2-88.4 87-64.9 148.4-163.1 170.7-272.9 10.2-49.9 11.5-107.6 3.5-158.7-19.3-124.9-89.6-235.9-192.4-304-63.4-42.1-126.3-65.1-202.5-74.3-20.2-2.4-70.3-2.4-91.7 0-67.2 7.6-128.9 28.3-185.1 62l-13.7 8.2 138 .6c148.4.6 141.2.4 172.3 5.9 113.7 20.3 214.5 95.6 267.6 200 19.3 37.9 31.9 79.1 38.1 125 3.5 25.4 3 71.7-1.1 99.5-17.5 120.3-89.1 223-196 281.4-37.6 20.5-80.2 34.7-123.4 41.1-26.5 3.9-33.3 4.1-166.5 4.6-71.5.3-130.5.6-131.2.7-2.1.3 21.2 13.7 43.2 24.8 52.9 26.6 104.6 40.7 170 46.3 10.8.9 62.5-.3 76-1.8zM685 971.7c37.6-5.5 68.6-14.8 99.5-29.6 56.2-27 104.1-69.8 136.7-122.1 27.2-43.7 44.1-93.8 48.9-145.3 1.5-16.5.7-57.3-1.5-72.2-14.7-100.9-67.3-181.7-153-235.3-32-20-70.5-34.7-110.3-42.2-26.7-5-27.3-5-203.8-5H336.6l-9.9 10.3c-17.3 17.9-44.6 51.2-49.6 60.4l-1.2 2.3h182.8c100.5 0 188 .3 194.3.6 41.1 1.9 73.7 10.1 106.7 27 66.4 33.9 116.1 98.2 132.2 170.9 4.1 18.6 5.5 32.1 5.4 54.5 0 17.1-.4 24.5-2.2 35.8-5 32.7-15.5 63-31.1 90-42.5 73.2-115 119.9-197.5 127.1-7.9.7-77.7 1.1-202.2 1.1-104.7 0-190.3.4-190.3.8 0 1.2 12.2 18.3 20.8 29.2 10.1 12.7 20.6 24.6 31.1 35.3l8.6 8.8 169.5-.4c152.9-.3 170.6-.5 181-2zm-12.1-126.2c33.4-4.8 67-18.8 93.8-39.3C809 774 837.2 723.9 844 669c2.4-19.7.7-48.7-4-68.6-9-38.4-31.8-78-58.5-101.8-25.6-22.9-52-37.4-82.6-45.5-24.3-6.5-9.6-6.1-242.7-6.1H243.9l-5.3 11.3c-7 14.6-13.8 32-19.2 48.6-2.4 7.3-4.4 13.5-4.4 13.7 0 .2 102 .4 226.8.4 220.5 0 226.9.1 234.7 1.9 37.7 9.2 69.5 35.7 85.2 71.3 13.1 29.7 14.7 61.7 4.7 91.7-6.9 20.7-17.2 37-33 52.1-24.4 23.4-48.7 33.9-83.6 36-8.7.5-106.1 1-225.1 1H215l.6 2.8c1.7 6.8 12.2 35.9 17.1 47.2 3 6.9 6.4 14.6 7.5 17.3l2.1 4.7h210.1c180.2 0 211.6-.2 220.5-1.5zM664.6 719c25.5-6.5 46.1-27 53.3-52.8 10-36.1-8.4-74.3-42.8-88.7-25.1-10.5-56.3-5.8-76.8 11.4-26.3 22-34.5 59.6-19.8 90.6 10.7 22.5 31 37.5 56.5 41.5 7.5 1.2 20.6.3 29.6-2z" id="player5"/></svg><svg viewBox="0 0 2249 2249" id="nodejs" xmlns="http://www.w3.org/2000/svg"><path d="M2249 1124.5c0 621-503.5 1124.5-1124.5 1124.5-573 0-1045.9-428.5-1115.6-982.6C3 1219.3 0 1171.9 0 1124.5c0-88 10.1-173.7 29.2-255.9C145.1 370.9 591.5 0 1124.5 0c531.7 0 977.2 369 1094.3 864.9 15.6 65.8 25.1 132.9 28.6 200.5 1.1 19.7 1.6 39.4 1.6 59.1z" fill="#f2f2f2"/><path d="M1068.3 1214.8V922.4L815.1 776.3 561.9 922.4v292.4L815.1 1361z" fill="#3b8739"/><path d="M2065.4 1170.4l165 95.3-165 95.3-253.2-146.2V922.5l253.2-146.2 153.4 88.6c15.6 65.8 25.1 132.9 28.6 200.5l-93.8 54.2v-101.8l-88.2-50.9-88.2 50.9v101.8z" fill="#333"/><path d="M2114.6 1097v-56.8l-49.1-28.4-49.2 28.4v56.8l49.2 28.4z" fill="#66a060"/><path d="M442.3 922.5V1308l-168.9-96.3V1014l-84.3-48.7-84.3 48.7v197.6l-95.9 54.7c-5.9-47-8.9-94.4-8.9-141.8 0-88 10.1-173.7 29.2-255.9l159.9-92.3z" fill="#333"/><path d="M815 776.2l253.2 438.5L815 1360.9 561.9 922.4z" fill="#6da75d"/><path d="M561.9 1214.8l86.9-141.8-86.9-150.6z" fill="#55a344"/><path d="M983.8 1068.6l84.4-146.2-253.1-146.1z" fill="#639d57"/><path d="M1522.3 437.4v387.9l-84.9-49-253.2 146.2v292.4l253.2 146.2 253.2-146.2V527.5zm-.5 679.9l-84.4 48.7-84.4-48.7v-97.4l84.4-48.7 84.4 48.7z" fill="#333"/><g fill="#66a060"><path d="M1239.4 1575.7s-5-42.7-50.7-42.7-77 6-77 31.3 88.9 25.3 122.7 35.3c33.8 9.9 63.6 35.8 48.7 81.5s-60.6 50.7-131.2 50.7-86.5-58.6-86.5-81.5h39.8s-5 35.8 41.7 41.7 91.4 9.3 97.4-26.8c8-47.7-151.1-23.9-165-70.6-11.8-39.5-5-91.4 74.5-99.4s123.2 27.2 123.2 79.5z"/><path d="M855.3 1762l87.9 50.7c44.2 25.5 99.4-6.4 99.4-57.4v-252.6h-35.8v242.6c0 27.8-30.1 45.3-54.3 31.3l-61.3-35.4v-258.9l224.2-129.4 224.2 129.4v258.9l-224.2 129.4-64.6-37.3-42.2 17 106.8 61.6 260-150.1v-300.2l-260-150.1-260 150.1z"/></g></svg><svg viewBox="0 0 1024 1024" id="phone" xmlns="http://www.w3.org/2000/svg"><defs><path id="ra" d="M1023.941 765.153c0 5.606-.171 17.766-.508 27.159-.824 22.982-2.646 52.639-5.401 66.151-4.141 20.306-10.392 39.472-18.542 55.425-9.643 18.871-21.943 35.775-36.559 50.364-14.584 14.56-31.472 26.812-50.315 36.416-16.036 8.172-35.322 14.426-55.744 18.549-13.378 2.701-42.812 4.488-65.648 5.3-9.402.336-21.564.505-27.15.505l-504.226-.081c-5.607 0-17.765-.172-27.158-.509-22.983-.824-52.639-2.646-66.152-5.4-20.306-4.142-39.473-10.392-55.425-18.542-18.872-9.644-35.775-21.944-50.364-36.56-14.56-14.584-26.812-31.471-36.415-50.314-8.174-16.037-14.428-35.323-18.551-55.744-2.7-13.378-4.487-42.812-5.3-65.649-.334-9.401-.503-21.563-.503-27.148l.08-504.228c0-5.607.171-17.766.508-27.159.825-22.983 2.646-52.639 5.401-66.151 4.141-20.306 10.391-39.473 18.542-55.426C34.154 93.24 46.455 76.336 61.07 61.747c14.584-14.559 31.472-26.812 50.315-36.416 16.037-8.172 35.324-14.426 55.745-18.549 13.377-2.701 42.812-4.488 65.648-5.3 9.402-.335 21.565-.504 27.149-.504l504.227.081c5.608 0 17.766.171 27.159.508 22.983.825 52.638 2.646 66.152 5.401 20.305 4.141 39.472 10.391 55.425 18.542 18.871 9.643 35.774 21.944 50.363 36.559 14.559 14.584 26.812 31.471 36.415 50.315 8.174 16.037 14.428 35.323 18.551 55.744 2.7 13.378 4.486 42.812 5.3 65.649.335 9.402.504 21.564.504 27.15l-.082 504.226z"/></defs><use xlink:href="#ra" overflow="visible" fill="00C1EC"/><path fill="#00C1EC" d="M783.302 243.246c-69.329-69.387-161.529-107.619-259.763-107.658-202.402 0-367.133 164.668-367.214 367.072-.026 64.699 16.883 127.854 49.017 183.522l-52.096 190.229 194.665-51.047c53.636 29.244 114.022 44.656 175.482 44.682h.151c202.382 0 367.128-164.688 367.21-367.094.039-98.087-38.121-190.319-107.452-259.706zM523.544 808.047h-.125c-54.767-.021-108.483-14.729-155.344-42.529l-11.146-6.612-115.517 30.293 30.834-112.592-7.259-11.544c-30.552-48.579-46.688-104.729-46.664-162.379.066-168.229 136.985-305.096 305.339-305.096 81.521.031 158.154 31.811 215.779 89.482s89.342 134.332 89.312 215.859c-.066 168.243-136.984 305.118-305.209 305.118zm167.415-228.515c-9.177-4.591-54.286-26.782-62.697-29.843-8.41-3.062-14.526-4.592-20.645 4.592-6.115 9.182-23.699 29.843-29.053 35.964-5.352 6.122-10.704 6.888-19.879 2.296-9.176-4.591-38.74-14.277-73.786-45.526-27.275-24.319-45.691-54.359-51.043-63.543-5.352-9.183-.569-14.146 4.024-18.72 4.127-4.109 9.175-10.713 13.763-16.069 4.587-5.355 6.117-9.183 9.175-15.304 3.059-6.122 1.529-11.479-.765-16.07-2.293-4.591-20.644-49.739-28.29-68.104-7.447-17.886-15.013-15.466-20.645-15.747-5.346-.266-11.469-.322-17.585-.322s-16.057 2.295-24.467 11.478-32.113 31.374-32.113 76.521c0 45.147 32.877 88.764 37.465 94.885 4.588 6.122 64.699 98.771 156.741 138.502 21.892 9.45 38.982 15.094 52.308 19.322 21.98 6.979 41.982 5.995 57.793 3.634 17.628-2.633 54.284-22.189 61.932-43.615 7.646-21.427 7.646-39.791 5.352-43.617-2.294-3.826-8.41-6.122-17.585-10.714z"/></svg><svg viewBox="175.7 78 490.6 436.9" id="react" xmlns="http://www.w3.org/2000/svg"><g fill="#61dafb"><path d="M666.3 296.5c0-32.5-40.7-63.3-103.1-82.4 14.4-63.6 8-114.2-20.2-130.4-6.5-3.8-14.1-5.6-22.4-5.6v22.3c4.6 0 8.3.9 11.4 2.6 13.6 7.8 19.5 37.5 14.9 75.7-1.1 9.4-2.9 19.3-5.1 29.4-19.6-4.8-41-8.5-63.5-10.9-13.5-18.5-27.5-35.3-41.6-50 32.6-30.3 63.2-46.9 84-46.9V78c-27.5 0-63.5 19.6-99.9 53.6-36.4-33.8-72.4-53.2-99.9-53.2v22.3c20.7 0 51.4 16.5 84 46.6-14 14.7-28 31.4-41.3 49.9-22.6 2.4-44 6.1-63.6 11-2.3-10-4-19.7-5.2-29-4.7-38.2 1.1-67.9 14.6-75.8 3-1.8 6.9-2.6 11.5-2.6V78.5c-8.4 0-16 1.8-22.6 5.6-28.1 16.2-34.4 66.7-19.9 130.1-62.2 19.2-102.7 49.9-102.7 82.3 0 32.5 40.7 63.3 103.1 82.4-14.4 63.6-8 114.2 20.2 130.4 6.5 3.8 14.1 5.6 22.5 5.6 27.5 0 63.5-19.6 99.9-53.6 36.4 33.8 72.4 53.2 99.9 53.2 8.4 0 16-1.8 22.6-5.6 28.1-16.2 34.4-66.7 19.9-130.1 62-19.1 102.5-49.9 102.5-82.3zm-130.2-66.7c-3.7 12.9-8.3 26.2-13.5 39.5-4.1-8-8.4-16-13.1-24-4.6-8-9.5-15.8-14.4-23.4 14.2 2.1 27.9 4.7 41 7.9zm-45.8 106.5c-7.8 13.5-15.8 26.3-24.1 38.2-14.9 1.3-30 2-45.2 2-15.1 0-30.2-.7-45-1.9-8.3-11.9-16.4-24.6-24.2-38-7.6-13.1-14.5-26.4-20.8-39.8 6.2-13.4 13.2-26.8 20.7-39.9 7.8-13.5 15.8-26.3 24.1-38.2 14.9-1.3 30-2 45.2-2 15.1 0 30.2.7 45 1.9 8.3 11.9 16.4 24.6 24.2 38 7.6 13.1 14.5 26.4 20.8 39.8-6.3 13.4-13.2 26.8-20.7 39.9zm32.3-13c5.4 13.4 10 26.8 13.8 39.8-13.1 3.2-26.9 5.9-41.2 8 4.9-7.7 9.8-15.6 14.4-23.7 4.6-8 8.9-16.1 13-24.1zM421.2 430c-9.3-9.6-18.6-20.3-27.8-32 9 .4 18.2.7 27.5.7 9.4 0 18.7-.2 27.8-.7-9 11.7-18.3 22.4-27.5 32zm-74.4-58.9c-14.2-2.1-27.9-4.7-41-7.9 3.7-12.9 8.3-26.2 13.5-39.5 4.1 8 8.4 16 13.1 24s9.5 15.8 14.4 23.4zM420.7 163c9.3 9.6 18.6 20.3 27.8 32-9-.4-18.2-.7-27.5-.7-9.4 0-18.7.2-27.8.7 9-11.7 18.3-22.4 27.5-32zm-74 58.9c-4.9 7.7-9.8 15.6-14.4 23.7-4.6 8-8.9 16-13 24-5.4-13.4-10-26.8-13.8-39.8 13.1-3.1 26.9-5.8 41.2-7.9zm-90.5 125.2c-35.4-15.1-58.3-34.9-58.3-50.6s22.9-35.6 58.3-50.6c8.6-3.7 18-7 27.7-10.1 5.7 19.6 13.2 40 22.5 60.9-9.2 20.8-16.6 41.1-22.2 60.6-9.9-3.1-19.3-6.5-28-10.2zM310 490c-13.6-7.8-19.5-37.5-14.9-75.7 1.1-9.4 2.9-19.3 5.1-29.4 19.6 4.8 41 8.5 63.5 10.9 13.5 18.5 27.5 35.3 41.6 50-32.6 30.3-63.2 46.9-84 46.9-4.5-.1-8.3-1-11.3-2.7zm237.2-76.2c4.7 38.2-1.1 67.9-14.6 75.8-3 1.8-6.9 2.6-11.5 2.6-20.7 0-51.4-16.5-84-46.6 14-14.7 28-31.4 41.3-49.9 22.6-2.4 44-6.1 63.6-11 2.3 10.1 4.1 19.8 5.2 29.1zm38.5-66.7c-8.6 3.7-18 7-27.7 10.1-5.7-19.6-13.2-40-22.5-60.9 9.2-20.8 16.6-41.1 22.2-60.6 9.9 3.1 19.3 6.5 28.1 10.2 35.4 15.1 58.3 34.9 58.3 50.6-.1 15.7-23 35.6-58.4 50.6z"/><circle cx="420.9" cy="296.5" r="45.7"/></g></svg><svg viewBox="0 0 256 244" preserveAspectRatio="xMidYMid" id="redux" xmlns="http://www.w3.org/2000/svg"><path d="M177.381 169.733c9.447-.978 16.614-9.122 16.288-18.896-.325-9.773-8.47-17.592-18.243-17.592h-.651c-10.1.326-17.918 8.796-17.592 18.895.326 4.887 2.28 9.122 5.212 12.054-11.076 21.828-28.016 37.791-53.426 51.148-17.266 9.122-35.183 12.38-53.1 10.1-14.66-1.955-26.062-8.47-33.23-19.222-10.424-15.963-11.401-33.23-2.605-50.496 6.19-12.38 15.962-21.502 22.152-26.063-1.303-4.235-3.258-11.402-4.235-16.614-47.237 34.207-42.35 80.468-28.016 102.295 10.75 16.29 32.577 26.389 56.684 26.389 6.515 0 13.03-.652 19.546-2.28 41.699-8.145 73.299-32.905 91.216-69.718zm57.336-40.397c-24.759-28.995-61.245-44.958-102.944-44.958h-5.212c-2.932-5.864-9.122-9.774-15.963-9.774h-.652C99.848 74.93 92.03 83.4 92.355 93.5c.326 9.773 8.47 17.592 18.243 17.592h.651c7.167-.326 13.357-4.887 15.963-11.077h5.864c24.759 0 48.214 7.167 69.39 21.176 16.288 10.751 28.016 24.76 34.531 41.7 5.538 13.683 5.212 27.04-.652 38.443-9.121 17.266-24.432 26.714-44.63 26.714-13.031 0-25.41-3.91-31.926-6.842-3.583 3.258-10.099 8.47-14.66 11.729 14.009 6.515 28.343 10.099 42.025 10.099 31.274 0 54.404-17.267 63.2-34.533 9.447-18.896 8.795-51.474-15.637-79.165zM69.225 175.27c.326 9.774 8.47 17.592 18.243 17.592h.652c10.099-.325 17.917-8.796 17.591-18.895-.325-9.774-8.47-17.592-18.243-17.592h-.651c-.652 0-1.63 0-2.28.325-13.357-22.153-18.895-46.26-16.94-72.323 1.302-19.547 7.818-36.488 19.22-50.497 9.447-12.054 27.69-17.918 40.07-18.243 34.531-.652 49.19 42.351 50.168 59.618 4.235.977 11.402 3.258 16.289 4.887C189.434 27.366 156.857 0 125.584 0c-29.32 0-56.359 21.176-67.11 52.451-14.985 41.7-5.212 81.771 13.031 113.372-1.628 2.28-2.606 5.864-2.28 9.448z" fill="#764ABC"/></svg><svg viewBox="0 0 512 384" id="sass" xmlns="http://www.w3.org/2000/svg"><path fill="#CF649A" d="M440.6 220.6c-17.9.101-33.4 4.4-46.4 10.801-4.8-9.5-9.6-17.801-10.399-24-.9-7.2-2-11.601-.9-20.2C384 178.6 389 166.4 389 165.4c-.101-.9-1.101-5.3-11.4-5.4s-19.2 2-20.2 4.7-3 8.9-4.3 15.3c-1.8 9.4-20.6 42.7-31.3 60.2-3.5-6.8-6.5-12.8-7.101-17.601-.899-7.199-2-11.6-.899-20.199 1.1-8.601 6.1-20.8 6.1-21.8-.1-.9-1.1-5.3-11.399-5.4-10.301-.1-19.2 2-20.2 4.7s-2.1 9.1-4.3 15.3C281.9 201.4 256.9 257 250.4 271.5c-3.3 7.4-6.199 13.3-8.3 17.3-2.1 4-.1.3-.3.7-1.8 3.4-2.8 5.3-2.8 5.3v.101c-1.4 2.5-2.9 4.899-3.601 4.899-.5 0-1.5-6.7.2-15.899 3.7-19.301 12.7-49.4 12.601-50.5 0-.5 1.699-5.801-5.801-8.5-7.3-2.7-9.899 1.8-10.5 1.8-.6 0-1.1 1.6-1.1 1.6s8.1-33.899-15.5-33.899c-14.8 0-35.2 16.1-45.3 30.8-6.4 3.5-20 10.899-34.4 18.8-5.5 3-11.2 6.2-16.6 9.1L117.9 251.9c-28.6-30.5-81.5-52.1-79.3-93.1.8-14.9 6-54.2 101.601-101.8 78.3-39 141-28.3 151.899-4.5 15.5 34-33.5 97.2-114.899 106.3-31 3.5-47.301-8.5-51.4-13-4.3-4.7-4.9-4.9-6.5-4-2.6 1.4-1 5.6 0 8.1 2.4 6.3 12.4 17.5 29.4 23.1 14.899 4.9 51.3 7.6 95.3-9.4 49.3-19.1 87.8-72.1 76.5-116.4-11.5-45.1-86.3-59.9-157-34.8C121.4 27.4 75.8 50.8 43 81.5 4 117.9-2.2 149.7.4 162.9c9.101 47.1 74 77.8 100 100.5-1.3.699-2.5 1.399-3.6 2-13 6.399-62.5 32.3-74.9 59.699-14 31 2.2 53.301 13 56.301 33.4 9.3 67.6-7.4 86.1-34.9 18.399-27.5 16.2-63.2 7.7-79.5l-.301-.6 10.2-6c6.601-3.9 13.101-7.5 18.8-10.601-3.199 8.7-5.5 19-6.699 34-1.4 17.601 5.8 40.4 15.3 49.4 4.2 3.899 9.2 4 12.3 4 11 0 16-9.101 21.5-20 6.8-13.3 12.8-28.7 12.8-28.7s-7.5 41.7 13 41.7c7.5 0 15-9.7 18.4-14.7v.1s.2-.3.6-1a36.13 36.13 0 001.2-1.899v-.2c3-5.2 9.7-17.1 19.7-36.8 12.899-25.4 25.3-57.2 25.3-57.2s1.2 7.8 4.9 20.6c2.199 7.601 6.999 15.9 10.699 24-3 4.2-4.8 6.601-4.8 6.601l.1.1c-2.399 3.2-5.1 6.601-7.899 10-10.2 12.2-22.4 26.101-24 30.101-1.9 4.699-1.5 8.199 2.2 11 2.7 2 7.5 2.399 12.6 2 9.2-.601 15.6-2.9 18.8-4.301 5-1.8 10.7-4.5 16.2-8.5 10-7.399 16.1-17.899 15.5-31.899-.3-7.7-2.8-15.3-5.9-22.5.9-1.3 1.801-2.601 2.7-4 15.8-23.101 28-48.5 28-48.5s1.2 7.8 4.9 20.6c1.899 6.5 5.7 13.601 9.1 20.601-14.8 12.1-24.1 26.1-27.3 35.3-5.9 17-1.3 24.7 7.4 26.5 3.899.8 9.5-1 13.699-2.8 5.2-1.7 11.5-4.601 17.301-8.9 10-7.4 19.6-17.7 19.1-31.6-.3-6.4-2-12.7-4.3-18.7 12.6-5.2 28.899-8.2 49.6-5.7 44.5 5.2 53.3 33 51.601 44.6-1.7 11.601-11 18-14.101 20-3.1 1.9-4.1 2.601-3.8 4 .4 2.101 1.8 2 4.5 1.601 3.7-.601 23.4-9.5 24.2-30.899 1.2-27.504-24.9-57.504-71.2-57.205zM97.4 336.3c-14.7 16.1-35.4 22.2-44.2 17-9.5-5.5-5.801-29.2 12.3-46.3 11-10.4 25.3-20 34.7-25.9 2.1-1.3 5.3-3.199 9.1-5.5.6-.399 1-.6 1-.6.7-.4 1.5-.9 2.3-1.4 6.7 24.4.3 45.8-15.2 62.7zm107.5-73.1c-5.1 12.5-15.9 44.6-22.4 42.8-5.601-1.5-9-25.8-1.101-49.8 4-12.101 12.5-26.5 17.5-32.101 8.101-9 16.9-12 19.101-8.3 2.6 4.801-9.9 39.601-13.1 47.401zm88.7 42.4c-2.2 1.101-4.2 1.9-5.1 1.301-.7-.4.899-1.9.899-1.9s11.1-11.9 15.5-17.4c2.5-3.199 5.5-6.899 8.7-11.1v1.2C313.6 292.1 299.8 301.7 293.6 305.6zm68.399-15.6c-1.6-1.2-1.399-4.9 4-16.5 2.101-4.6 6.9-12.3 15.2-19.6 1 3 1.601 5.899 1.5 8.6-.099 18-12.899 24.7-20.7 27.5z"/></svg><svg viewBox="-11.9 -2 1003.9 995.6" id="vsc" xmlns="http://www.w3.org/2000/svg"><path d="M12.1 353.9s-24-17.3 4.8-40.4l67.1-60s19.2-20.2 39.5-2.6l619.2 468.8v224.8s-.3 35.3-45.6 31.4z" fill="#2489ca"/><path d="M171.7 498.8L12.1 643.9s-16.4 12.2 0 34l74.1 67.4s17.6 18.9 43.6-2.6L299 614.4z" fill="#1070b3"/><path d="M451.9 500l292.7-223.5-1.9-223.6s-12.5-48.8-54.2-23.4L299 384z" fill="#0877b9"/><path d="M697.1 976.2c17 17.4 37.6 11.7 37.6 11.7l228.1-112.4c29.2-19.9 25.1-44.6 25.1-44.6V159.7c0-29.5-30.2-39.7-30.2-39.7L760 24.7c-43.2-26.7-71.5 4.8-71.5 4.8s36.4-26.2 54.2 23.4v887.5c0 6.1-1.3 12.1-3.9 17.5-5.2 10.5-16.5 20.3-43.6 16.2z" fill="#3c99d4"/></svg><svg viewBox="0 0 1200 1200" id="webpack" xmlns="http://www.w3.org/2000/svg"><path fill="#fff" d="M600 0l530.3 300v600L600 1200 69.7 900V300z"/><path fill="#8ed6fb" d="M1035.6 879.3l-418.1 236.5V931.6L878 788.3l157.6 91zm28.6-25.9V358.8l-153 88.3V765l153 88.4zm-901.5 25.9l418.1 236.5V931.6L320.3 788.3l-157.6 91zm-28.6-25.9V358.8l153 88.3V765l-153 88.4zM152 326.8L580.8 84.2v178.1L306.1 413.4l-2.1 1.2-152-87.8zm894.3 0L617.5 84.2v178.1l274.7 151.1 2.1 1.2 152-87.8z"/><path fill="#1c78c0" d="M580.8 889.7l-257-141.3v-280l257 148.4v272.9m36.7 0l257-141.3v-280l-257 148.4v272.9M341.2 436l258-141.9 258 141.9-258 149-258-149"/></svg></svg>