<?xml version="1.0" encoding="utf-8"?><svg viewBox="0 0 90 135" xmlns="http://www.w3.org/2000/svg" xmlns:xlink="http://www.w3.org/1999/xlink"><style>:root>svg{display:none}:root>svg:target{display:block}</style><svg viewBox="0 0 240 234" id="adobe-photoshop" xmlns="http://www.w3.org/2000/svg"><path d="M42.5 0h155C221 0 240 19 240 42.5v149c0 23.5-19 42.5-42.5 42.5h-155C19 234 0 215 0 191.5v-149C0 19 19 0 42.5 0z" fill="#001e36"/><path d="M54 164.1V61.2c0-.7.3-1.1 1-1.1 1.7 0 3.3 0 5.6-.1 2.4-.1 4.9-.1 7.6-.2s5.6-.1 8.7-.2 6.1-.1 9.1-.1c8.2 0 15 1 20.6 3.1 5 1.7 9.6 4.5 13.4 8.2 3.2 3.2 5.7 7.1 7.3 11.4 1.5 4.2 2.3 8.5 2.3 13 0 8.6-2 15.7-6 21.3s-9.6 9.8-16.1 12.2c-6.8 2.5-14.3 3.4-22.5 3.4-2.4 0-4 0-5-.1s-2.4-.1-4.3-.1V164c.1.7-.4 1.3-1.1 1.4H55.2c-.8 0-1.2-.4-1.2-1.3zm21.8-84.7V113c1.4.1 2.7.2 3.9.2H85c3.9 0 7.8-.6 11.5-1.8 3.2-.9 6-2.8 8.2-5.3 2.1-2.5 3.1-5.9 3.1-10.3.1-3.1-.7-6.2-2.3-8.9-1.7-2.6-4.1-4.6-7-5.7-3.7-1.5-7.7-2.1-11.8-2-2.6 0-4.9 0-6.8.1-2-.1-3.4 0-4.1.1zM192 106.9c-3-1.6-6.2-2.7-9.6-3.4-3.7-.8-7.4-1.3-11.2-1.3-2-.1-4.1.2-6 .7-1.3.3-2.4 1-3.1 2-.5.8-.8 1.8-.8 2.7s.4 1.8 1 2.6c.9 1.1 2.1 2 3.4 2.7 2.3 1.2 4.7 2.3 7.1 3.3 5.4 1.8 10.6 4.3 15.4 7.3 3.3 2.1 6 4.9 7.9 8.3 1.6 3.2 2.4 6.7 2.3 10.3.1 4.7-1.3 9.4-3.9 13.3-2.8 4-6.7 7.1-11.2 8.9-4.9 2.1-10.9 3.2-18.1 3.2-4.6 0-9.1-.4-13.6-1.3-3.5-.6-7-1.7-10.2-3.2-.7-.4-1.2-1.1-1.1-1.9v-17.4c0-.3.1-.7.4-.9s.6-.1.9.1c3.9 2.3 8 3.9 12.4 4.9 3.8 1 7.8 1.5 11.8 1.5 3.8 0 6.5-.5 8.3-1.4 1.6-.7 2.7-2.4 2.7-4.2 0-1.4-.8-2.7-2.4-4s-4.9-2.8-9.8-4.7c-5.1-1.8-9.8-4.2-14.2-7.2-3.1-2.2-5.7-5.1-7.6-8.5-1.6-3.2-2.4-6.7-2.3-10.2 0-4.3 1.2-8.4 3.4-12.1 2.5-4 6.2-7.2 10.5-9.2 4.7-2.4 10.6-3.5 17.7-3.5 4.1 0 8.3.3 12.4.9 3 .4 5.9 1.2 8.6 2.3.4.1.8.5 1 .9.1.4.2.8.2 1.2v16.3c0 .4-.2.8-.5 1-.9.2-1.4.2-1.8 0z" fill="#31a8ff"/></svg><svg viewBox="0 0 26 24" fill="none" id="arrow" xmlns="http://www.w3.org/2000/svg"><path d="M11.5 1.5L1 12l10.5 10.5M1 12h24" stroke="#fff" stroke-width="2" stroke-linecap="round" stroke-linejoin="round"/></svg><svg fill="none" viewBox="0 0 124 141.53" id="css" xmlns="http://www.w3.org/2000/svg"><path d="M10.383 126.892L0 0l124 .255-10.979 126.637-50.553 14.638z" fill="#1b73ba"/><path d="M62.468 129.275V12.085l51.064.17-9.106 104.85z" fill="#1c88c7"/><path d="M100.851 27.064H22.298l2.128 15.318h37.276l-36.68 15.745 2.127 14.808h54.043l-1.958 20.68-18.298 3.575-16.595-4.255-1.277-11.745H27.83l2.042 24.426 32.681 9.106 31.32-9.957 4-47.745H64.765l36.085-14.978z" fill="#fff"/></svg><svg viewBox="0 0 406.065 406.065" id="facebook" xmlns="http://www.w3.org/2000/svg"><linearGradient id="da" gradientUnits="userSpaceOnUse" x1="-1383.689" y1="1177.103" x2="-1382.689" y2="1177.103" gradientTransform="rotate(52.827 136349.564 548347.405) scale(276.6438)"><stop offset="0" stop-color="#455e9b"/><stop offset="1" stop-color="#5a70b3"/></linearGradient><path d="M22.969 144.483v177.765c0 33.643 27.208 60.852 60.847 60.852H322.25c33.641 0 60.848-27.209 60.848-60.852V145.105c-51.462 13.454-112.911 21.27-178.885 21.27-67.007 0-129.314-8.058-181.244-21.892M.055 70.038A74.62 74.62 0 000 72.882v260.303c0 40.172 32.708 72.881 72.888 72.881H333.18c40.179 0 72.885-32.709 72.885-72.881V72.882c0-.49-.005-.983-.015-1.471v67.114c-3.06.958-6.164 1.897-9.309 2.813v185.867c0 38.336-31.204 69.541-69.539 69.541H78.862c-38.334 0-69.54-31.205-69.54-69.541v-186.56c-3.146-.934-6.25-1.89-9.308-2.866V72.473c.001-.814.014-1.627.041-2.435" fill="url(#da)"/><path d="M22.969 83.728c0-33.553 27.208-60.845 60.847-60.845H322.25c33.641 0 60.848 27.292 60.848 60.845v238.521c0 33.643-27.207 60.852-60.848 60.852H83.815c-33.639 0-60.847-27.209-60.847-60.852l.001-238.521M9.322 78.86v248.345c0 38.336 31.206 69.541 69.54 69.541h248.341c38.335 0 69.539-31.205 69.539-69.541V78.86c0-38.332-31.204-69.538-69.539-69.538H78.862c-38.334 0-69.54 31.206-69.54 69.538" fill="#8091c1"/><path d="M336.51 0H68.783c-1.8 0-3.578.091-5.345.226C28.502 4.782 1.239 34.169.055 70.038 1.554 31.175 33.66 0 72.887 0H333.18c39.688 0 72.085 31.912 72.87 71.411v-.141c-.587-35.795-27.114-65.417-61.567-70.8-2.618-.3-5.275-.47-7.973-.47" fill="#d6ddf0"/><linearGradient id="db" gradientUnits="userSpaceOnUse" x1="-1383.689" y1="1176.838" x2="-1382.689" y2="1176.838" gradientTransform="rotate(52.827 136349.564 548347.405) scale(276.6438)"><stop offset="0" stop-color="#697bb0"/><stop offset="1" stop-color="#7688c2"/></linearGradient><path d="M322.249 22.882H83.815c-33.639 0-60.847 27.292-60.847 60.845v60.755c51.93 13.834 114.236 21.892 181.242 21.892 65.974 0 127.423-7.816 178.885-21.27V83.728c.001-33.553-27.206-60.846-60.846-60.846M333.18 0H72.887C33.66 0 1.554 31.175.055 70.038c-.026.808-.04 1.621-.04 2.435v65.305a465.32 465.32 0 009.308 2.866V78.86c0-38.332 31.206-69.538 69.54-69.538h248.341c38.335 0 69.539 31.206 69.539 69.538v62.478a479.45 479.45 0 009.309-2.813V71.411C405.265 31.912 372.868 0 333.18 0" fill="url(#db)"/><path d="M327.203 9.322H78.862c-38.334 0-69.54 31.206-69.54 69.538v61.784a503.287 503.287 0 0013.646 3.838V83.728c0-33.553 27.208-60.845 60.847-60.845h238.434c33.641 0 60.848 27.292 60.848 60.845v61.378a509.178 509.178 0 0013.646-3.767V78.86c-.001-38.332-31.205-69.538-69.54-69.538" fill="#8d9fcb"/><path d="M311.982 109.705h26.031v-52.68h-56.437c-34.275 0-62.062 27.786-62.062 62.062v31.515h-44.521v52.681h44.521v162.21h69.238v-162.21h49.259v-52.681h-49.259V132.93c.004-12.826 10.403-23.225 23.23-23.225z" fill="#fff"/></svg><svg viewBox="0 0 200 300" id="figma" xmlns="http://www.w3.org/2000/svg"><path d="M50 300c27.6 0 50-22.4 50-50v-50H50c-27.6 0-50 22.4-50 50s22.4 50 50 50z" fill="#0acf83"/><path d="M0 150c0-27.6 22.4-50 50-50h50v100H50c-27.6 0-50-22.4-50-50z" fill="#a259ff"/><path d="M0 50C0 22.4 22.4 0 50 0h50v100H50C22.4 100 0 77.6 0 50z" fill="#f24e1e"/><path d="M100 0h50c27.6 0 50 22.4 50 50s-22.4 50-50 50h-50z" fill="#ff7262"/><path d="M200 150c0 27.6-22.4 50-50 50s-50-22.4-50-50 22.4-50 50-50 50 22.4 50 50z" fill="#1abcfe"/></svg><svg viewBox="0 0 256 256" preserveAspectRatio="xMidYMid" id="frontend" xmlns="http://www.w3.org/2000/svg"><path d="M128 0C57.25 0 0 57.25 0 128s57.25 128 128 128 128-57.25 128-128S198.284 0 128 0zm0 232.727c-58.182 0-105.193-47.01-105.193-104.727C22.807 69.818 69.818 22.807 128 22.807c58.182 0 104.727 47.011 104.727 105.193 0 57.716-47.01 104.727-104.727 104.727zm-13.964-69.818L76.335 128l37.701-35.375V59.578L41.891 128l72.145 67.956V162.91zm27.462-103.33v33.046L179.2 128l-37.702 34.91v33.046L213.644 128l-72.146-68.422z" fill="#53ADC0"/></svg><svg viewBox="0 49.4 512 399.42" id="gmail" xmlns="http://www.w3.org/2000/svg"><g fill="none" fill-rule="evenodd"><g fill-rule="nonzero"><path d="M34.91 448.818h81.454V251L0 163.727V413.91c0 19.287 15.622 34.91 34.91 34.91z" fill="#4285f4"/><path d="M395.636 448.818h81.455c19.287 0 34.909-15.622 34.909-34.909V163.727L395.636 251z" fill="#34a853"/><path d="M395.636 99.727V251L512 163.727v-46.545c0-43.142-49.25-67.782-83.782-41.891z" fill="#fbbc04"/></g><path d="M116.364 251V99.727L256 204.455 395.636 99.727V251L256 355.727z" fill="#ea4335"/><path d="M0 117.182v46.545L116.364 251V99.727L83.782 75.291C49.25 49.4 0 74.04 0 117.18z" fill="#c5221f" fill-rule="nonzero"/></g></svg><svg fill="none" viewBox="0 0 124 141.532" id="html" xmlns="http://www.w3.org/2000/svg"><path d="M10.383 126.894L0 0l124 .255-10.979 126.639-50.553 14.638z" fill="#e34f26"/><path d="M62.468 129.277V12.085l51.064.17-9.106 104.851z" fill="#ef652a"/><path d="M99.49 41.362l1.446-15.49H22.383l4.34 47.49h54.213L78.81 93.617l-17.362 4.68-17.617-5.106-.936-12.085H27.319l2.128 24.681 32 8.936 32.255-8.936 4.34-48.17H41.107L39.49 41.362z" fill="#fff"/></svg><svg viewBox="0 0 1052 1052" id="js" xmlns="http://www.w3.org/2000/svg"><path fill="#f0db4f" d="M0 0h1052v1052H0z"/><path d="M965.9 801.1c-7.7-48-39-88.3-131.7-125.9-32.2-14.8-68.1-25.399-78.8-49.8-3.8-14.2-4.3-22.2-1.9-30.8 6.9-27.9 40.2-36.6 66.6-28.6 17 5.7 33.1 18.801 42.8 39.7 45.4-29.399 45.3-29.2 77-49.399-11.6-18-17.8-26.301-25.4-34-27.3-30.5-64.5-46.2-124-45-10.3 1.3-20.699 2.699-31 4-29.699 7.5-58 23.1-74.6 44-49.8 56.5-35.6 155.399 25 196.1 59.7 44.8 147.4 55 158.6 96.9 10.9 51.3-37.699 67.899-86 62-35.6-7.4-55.399-25.5-76.8-58.4-39.399 22.8-39.399 22.8-79.899 46.1 9.6 21 19.699 30.5 35.8 48.7 76.2 77.3 266.899 73.5 301.1-43.5 1.399-4.001 10.6-30.801 3.199-72.101zm-394-317.6h-98.4c0 85-.399 169.4-.399 254.4 0 54.1 2.8 103.7-6 118.9-14.4 29.899-51.7 26.2-68.7 20.399-17.3-8.5-26.1-20.6-36.3-37.699-2.8-4.9-4.9-8.7-5.601-9-26.699 16.3-53.3 32.699-80 49 13.301 27.3 32.9 51 58 66.399 37.5 22.5 87.9 29.4 140.601 17.3 34.3-10 63.899-30.699 79.399-62.199 22.4-41.3 17.6-91.3 17.4-146.6.5-90.2 0-180.4 0-270.9z" fill="#323330"/></svg><svg id="motion" viewBox="0 0 1302 1302" xmlns="http://www.w3.org/2000/svg"><style>.jst0{fill:#002195}</style><path class="jst0" d="M0 651V0h1302v1302H0V651zm690.5 444.6c81.9-9.1 158.1-39.1 224.2-88.4 87-64.9 148.4-163.1 170.7-272.9 10.2-49.9 11.5-107.6 3.5-158.7-19.3-124.9-89.6-235.9-192.4-304-63.4-42.1-126.3-65.1-202.5-74.3-20.2-2.4-70.3-2.4-91.7 0-67.2 7.6-128.9 28.3-185.1 62l-13.7 8.2 138 .6c148.4.6 141.2.4 172.3 5.9 113.7 20.3 214.5 95.6 267.6 200 19.3 37.9 31.9 79.1 38.1 125 3.5 25.4 3 71.7-1.1 99.5-17.5 120.3-89.1 223-196 281.4-37.6 20.5-80.2 34.7-123.4 41.1-26.5 3.9-33.3 4.1-166.5 4.6-71.5.3-130.5.6-131.2.7-2.1.3 21.2 13.7 43.2 24.8 52.9 26.6 104.6 40.7 170 46.3 10.8.9 62.5-.3 76-1.8zM685 971.7c37.6-5.5 68.6-14.8 99.5-29.6 56.2-27 104.1-69.8 136.7-122.1 27.2-43.7 44.1-93.8 48.9-145.3 1.5-16.5.7-57.3-1.5-72.2-14.7-100.9-67.3-181.7-153-235.3-32-20-70.5-34.7-110.3-42.2-26.7-5-27.3-5-203.8-5H336.6l-9.9 10.3c-17.3 17.9-44.6 51.2-49.6 60.4l-1.2 2.3h182.8c100.5 0 188 .3 194.3.6 41.1 1.9 73.7 10.1 106.7 27 66.4 33.9 116.1 98.2 132.2 170.9 4.1 18.6 5.5 32.1 5.4 54.5 0 17.1-.4 24.5-2.2 35.8-5 32.7-15.5 63-31.1 90-42.5 73.2-115 119.9-197.5 127.1-7.9.7-77.7 1.1-202.2 1.1-104.7 0-190.3.4-190.3.8 0 1.2 12.2 18.3 20.8 29.2 10.1 12.7 20.6 24.6 31.1 35.3l8.6 8.8 169.5-.4c152.9-.3 170.6-.5 181-2zm-12.1-126.2c33.4-4.8 67-18.8 93.8-39.3C809 774 837.2 723.9 844 669c2.4-19.7.7-48.7-4-68.6-9-38.4-31.8-78-58.5-101.8-25.6-22.9-52-37.4-82.6-45.5-24.3-6.5-9.6-6.1-242.7-6.1H243.9l-5.3 11.3c-7 14.6-13.8 32-19.2 48.6-2.4 7.3-4.4 13.5-4.4 13.7 0 .2 102 .4 226.8.4 220.5 0 226.9.1 234.7 1.9 37.7 9.2 69.5 35.7 85.2 71.3 13.1 29.7 14.7 61.7 4.7 91.7-6.9 20.7-17.2 37-33 52.1-24.4 23.4-48.7 33.9-83.6 36-8.7.5-106.1 1-225.1 1H215l.6 2.8c1.7 6.8 12.2 35.9 17.1 47.2 3 6.9 6.4 14.6 7.5 17.3l2.1 4.7h210.1c180.2 0 211.6-.2 220.5-1.5zM664.6 719c25.5-6.5 46.1-27 53.3-52.8 10-36.1-8.4-74.3-42.8-88.7-25.1-10.5-56.3-5.8-76.8 11.4-26.3 22-34.5 59.6-19.8 90.6 10.7 22.5 31 37.5 56.5 41.5 7.5 1.2 20.6.3 29.6-2z" id="jlayer5"/></svg><svg viewBox="0 0 1024 1024" id="phone" xmlns="http://www.w3.org/2000/svg"><defs><path id="ka" d="M1023.941 765.153c0 5.606-.171 17.766-.508 27.159-.824 22.982-2.646 52.639-5.401 66.151-4.141 20.306-10.392 39.472-18.542 55.425-9.643 18.871-21.943 35.775-36.559 50.364-14.584 14.56-31.472 26.812-50.315 36.416-16.036 8.172-35.322 14.426-55.744 18.549-13.378 2.701-42.812 4.488-65.648 5.3-9.402.336-21.564.505-27.15.505l-504.226-.081c-5.607 0-17.765-.172-27.158-.509-22.983-.824-52.639-2.646-66.152-5.4-20.306-4.142-39.473-10.392-55.425-18.542-18.872-9.644-35.775-21.944-50.364-36.56-14.56-14.584-26.812-31.471-36.415-50.314-8.174-16.037-14.428-35.323-18.551-55.744-2.7-13.378-4.487-42.812-5.3-65.649-.334-9.401-.503-21.563-.503-27.148l.08-504.228c0-5.607.171-17.766.508-27.159.825-22.983 2.646-52.639 5.401-66.151 4.141-20.306 10.391-39.473 18.542-55.426C34.154 93.24 46.455 76.336 61.07 61.747c14.584-14.559 31.472-26.812 50.315-36.416 16.037-8.172 35.324-14.426 55.745-18.549 13.377-2.701 42.812-4.488 65.648-5.3 9.402-.335 21.565-.504 27.149-.504l504.227.081c5.608 0 17.766.171 27.159.508 22.983.825 52.638 2.646 66.152 5.401 20.305 4.141 39.472 10.391 55.425 18.542 18.871 9.643 35.774 21.944 50.363 36.559 14.559 14.584 26.812 31.471 36.415 50.315 8.174 16.037 14.428 35.323 18.551 55.744 2.7 13.378 4.486 42.812 5.3 65.649.335 9.402.504 21.564.504 27.15l-.082 504.226z"/></defs><use xlink:href="#ka" overflow="visible" fill="00C1EC"/><path fill="#00C1EC" d="M783.302 243.246c-69.329-69.387-161.529-107.619-259.763-107.658-202.402 0-367.133 164.668-367.214 367.072-.026 64.699 16.883 127.854 49.017 183.522l-52.096 190.229 194.665-51.047c53.636 29.244 114.022 44.656 175.482 44.682h.151c202.382 0 367.128-164.688 367.21-367.094.039-98.087-38.121-190.319-107.452-259.706zM523.544 808.047h-.125c-54.767-.021-108.483-14.729-155.344-42.529l-11.146-6.612-115.517 30.293 30.834-112.592-7.259-11.544c-30.552-48.579-46.688-104.729-46.664-162.379.066-168.229 136.985-305.096 305.339-305.096 81.521.031 158.154 31.811 215.779 89.482s89.342 134.332 89.312 215.859c-.066 168.243-136.984 305.118-305.209 305.118zm167.415-228.515c-9.177-4.591-54.286-26.782-62.697-29.843-8.41-3.062-14.526-4.592-20.645 4.592-6.115 9.182-23.699 29.843-29.053 35.964-5.352 6.122-10.704 6.888-19.879 2.296-9.176-4.591-38.74-14.277-73.786-45.526-27.275-24.319-45.691-54.359-51.043-63.543-5.352-9.183-.569-14.146 4.024-18.72 4.127-4.109 9.175-10.713 13.763-16.069 4.587-5.355 6.117-9.183 9.175-15.304 3.059-6.122 1.529-11.479-.765-16.07-2.293-4.591-20.644-49.739-28.29-68.104-7.447-17.886-15.013-15.466-20.645-15.747-5.346-.266-11.469-.322-17.585-.322s-16.057 2.295-24.467 11.478-32.113 31.374-32.113 76.521c0 45.147 32.877 88.764 37.465 94.885 4.588 6.122 64.699 98.771 156.741 138.502 21.892 9.45 38.982 15.094 52.308 19.322 21.98 6.979 41.982 5.995 57.793 3.634 17.628-2.633 54.284-22.189 61.932-43.615 7.646-21.427 7.646-39.791 5.352-43.617-2.294-3.826-8.41-6.122-17.585-10.714z"/></svg><svg viewBox="0 0 512 384" id="sass" xmlns="http://www.w3.org/2000/svg"><path fill="#CF649A" d="M440.6 220.6c-17.9.101-33.4 4.4-46.4 10.801-4.8-9.5-9.6-17.801-10.399-24-.9-7.2-2-11.601-.9-20.2C384 178.6 389 166.4 389 165.4c-.101-.9-1.101-5.3-11.4-5.4s-19.2 2-20.2 4.7-3 8.9-4.3 15.3c-1.8 9.4-20.6 42.7-31.3 60.2-3.5-6.8-6.5-12.8-7.101-17.601-.899-7.199-2-11.6-.899-20.199 1.1-8.601 6.1-20.8 6.1-21.8-.1-.9-1.1-5.3-11.399-5.4-10.301-.1-19.2 2-20.2 4.7s-2.1 9.1-4.3 15.3C281.9 201.4 256.9 257 250.4 271.5c-3.3 7.4-6.199 13.3-8.3 17.3-2.1 4-.1.3-.3.7-1.8 3.4-2.8 5.3-2.8 5.3v.101c-1.4 2.5-2.9 4.899-3.601 4.899-.5 0-1.5-6.7.2-15.899 3.7-19.301 12.7-49.4 12.601-50.5 0-.5 1.699-5.801-5.801-8.5-7.3-2.7-9.899 1.8-10.5 1.8-.6 0-1.1 1.6-1.1 1.6s8.1-33.899-15.5-33.899c-14.8 0-35.2 16.1-45.3 30.8-6.4 3.5-20 10.899-34.4 18.8-5.5 3-11.2 6.2-16.6 9.1L117.9 251.9c-28.6-30.5-81.5-52.1-79.3-93.1.8-14.9 6-54.2 101.601-101.8 78.3-39 141-28.3 151.899-4.5 15.5 34-33.5 97.2-114.899 106.3-31 3.5-47.301-8.5-51.4-13-4.3-4.7-4.9-4.9-6.5-4-2.6 1.4-1 5.6 0 8.1 2.4 6.3 12.4 17.5 29.4 23.1 14.899 4.9 51.3 7.6 95.3-9.4 49.3-19.1 87.8-72.1 76.5-116.4-11.5-45.1-86.3-59.9-157-34.8C121.4 27.4 75.8 50.8 43 81.5 4 117.9-2.2 149.7.4 162.9c9.101 47.1 74 77.8 100 100.5-1.3.699-2.5 1.399-3.6 2-13 6.399-62.5 32.3-74.9 59.699-14 31 2.2 53.301 13 56.301 33.4 9.3 67.6-7.4 86.1-34.9 18.399-27.5 16.2-63.2 7.7-79.5l-.301-.6 10.2-6c6.601-3.9 13.101-7.5 18.8-10.601-3.199 8.7-5.5 19-6.699 34-1.4 17.601 5.8 40.4 15.3 49.4 4.2 3.899 9.2 4 12.3 4 11 0 16-9.101 21.5-20 6.8-13.3 12.8-28.7 12.8-28.7s-7.5 41.7 13 41.7c7.5 0 15-9.7 18.4-14.7v.1s.2-.3.6-1a36.13 36.13 0 001.2-1.899v-.2c3-5.2 9.7-17.1 19.7-36.8 12.899-25.4 25.3-57.2 25.3-57.2s1.2 7.8 4.9 20.6c2.199 7.601 6.999 15.9 10.699 24-3 4.2-4.8 6.601-4.8 6.601l.1.1c-2.399 3.2-5.1 6.601-7.899 10-10.2 12.2-22.4 26.101-24 30.101-1.9 4.699-1.5 8.199 2.2 11 2.7 2 7.5 2.399 12.6 2 9.2-.601 15.6-2.9 18.8-4.301 5-1.8 10.7-4.5 16.2-8.5 10-7.399 16.1-17.899 15.5-31.899-.3-7.7-2.8-15.3-5.9-22.5.9-1.3 1.801-2.601 2.7-4 15.8-23.101 28-48.5 28-48.5s1.2 7.8 4.9 20.6c1.899 6.5 5.7 13.601 9.1 20.601-14.8 12.1-24.1 26.1-27.3 35.3-5.9 17-1.3 24.7 7.4 26.5 3.899.8 9.5-1 13.699-2.8 5.2-1.7 11.5-4.601 17.301-8.9 10-7.4 19.6-17.7 19.1-31.6-.3-6.4-2-12.7-4.3-18.7 12.6-5.2 28.899-8.2 49.6-5.7 44.5 5.2 53.3 33 51.601 44.6-1.7 11.601-11 18-14.101 20-3.1 1.9-4.1 2.601-3.8 4 .4 2.101 1.8 2 4.5 1.601 3.7-.601 23.4-9.5 24.2-30.899 1.2-27.504-24.9-57.504-71.2-57.205zM97.4 336.3c-14.7 16.1-35.4 22.2-44.2 17-9.5-5.5-5.801-29.2 12.3-46.3 11-10.4 25.3-20 34.7-25.9 2.1-1.3 5.3-3.199 9.1-5.5.6-.399 1-.6 1-.6.7-.4 1.5-.9 2.3-1.4 6.7 24.4.3 45.8-15.2 62.7zm107.5-73.1c-5.1 12.5-15.9 44.6-22.4 42.8-5.601-1.5-9-25.8-1.101-49.8 4-12.101 12.5-26.5 17.5-32.101 8.101-9 16.9-12 19.101-8.3 2.6 4.801-9.9 39.601-13.1 47.401zm88.7 42.4c-2.2 1.101-4.2 1.9-5.1 1.301-.7-.4.899-1.9.899-1.9s11.1-11.9 15.5-17.4c2.5-3.199 5.5-6.899 8.7-11.1v1.2C313.6 292.1 299.8 301.7 293.6 305.6zm68.399-15.6c-1.6-1.2-1.399-4.9 4-16.5 2.101-4.6 6.9-12.3 15.2-19.6 1 3 1.601 5.899 1.5 8.6-.099 18-12.899 24.7-20.7 27.5z"/></svg><svg viewBox="-11.9 -2 1003.9 995.6" id="vsc" xmlns="http://www.w3.org/2000/svg"><path d="M12.1 353.9s-24-17.3 4.8-40.4l67.1-60s19.2-20.2 39.5-2.6l619.2 468.8v224.8s-.3 35.3-45.6 31.4z" fill="#2489ca"/><path d="M171.7 498.8L12.1 643.9s-16.4 12.2 0 34l74.1 67.4s17.6 18.9 43.6-2.6L299 614.4z" fill="#1070b3"/><path d="M451.9 500l292.7-223.5-1.9-223.6s-12.5-48.8-54.2-23.4L299 384z" fill="#0877b9"/><path d="M697.1 976.2c17 17.4 37.6 11.7 37.6 11.7l228.1-112.4c29.2-19.9 25.1-44.6 25.1-44.6V159.7c0-29.5-30.2-39.7-30.2-39.7L760 24.7c-43.2-26.7-71.5 4.8-71.5 4.8s36.4-26.2 54.2 23.4v887.5c0 6.1-1.3 12.1-3.9 17.5-5.2 10.5-16.5 20.3-43.6 16.2z" fill="#3c99d4"/></svg></svg>